<?xml version="1.0" encoding="UTF-8"?> <!-- Generator: Adobe Illustrator 25.1.0, SVG Export Plug-In . SVG Version: 6.00 Build 0) --> <svg xmlns="http://www.w3.org/2000/svg" xmlns:xlink="http://www.w3.org/1999/xlink" version="1.1" id="Layer_1" x="0px" y="0px" viewBox="0 0 288 288" style="enable-background:new 0 0 288 288;" xml:space="preserve"> <style type="text/css"> .st0{fill:none;stroke:#00CFC1;stroke-width:9.5118;stroke-miterlimit:10;} .st1{fill:none;stroke:#00CFC1;stroke-width:9.5118;stroke-linejoin:round;stroke-miterlimit:10;} .st2{fill:none;stroke:#00CFC1;stroke-width:9.5118;stroke-linecap:round;stroke-linejoin:round;stroke-miterlimit:10;} .st3{fill:none;stroke:#00CFC1;stroke-width:10.2696;stroke-miterlimit:10;} .st4{fill:none;stroke:#00CFC1;stroke-width:9.5258;stroke-miterlimit:10;} .st5{fill:none;stroke:#00CFC1;stroke-width:9.5258;stroke-linecap:round;stroke-miterlimit:10;} .st6{fill:none;stroke:#00CFC1;stroke-width:9.5258;stroke-linecap:round;stroke-linejoin:round;stroke-miterlimit:10;} .st7{fill:none;stroke:#00CFC1;stroke-width:10.203;stroke-linecap:round;stroke-linejoin:round;stroke-miterlimit:10;} .st8{fill:none;stroke:#00CFC1;stroke-width:8.5603;stroke-linecap:round;stroke-linejoin:round;stroke-miterlimit:10;} .st9{fill:none;stroke:#00CFC1;stroke-width:8.7111;stroke-linecap:round;stroke-linejoin:round;stroke-miterlimit:10;} .st10{fill:none;stroke:#00CFC1;stroke-width:9.0014;stroke-linecap:round;stroke-linejoin:round;stroke-miterlimit:10;} .st11{fill:#FFFFFF;stroke:#00CFC1;stroke-width:9.0014;stroke-linecap:round;stroke-linejoin:round;stroke-miterlimit:10;} .st12{fill:none;stroke:#00CFC1;stroke-width:10.6184;stroke-linecap:round;stroke-linejoin:round;stroke-miterlimit:10;} .st13{fill:none;stroke:#00CFC1;stroke-width:9.6317;stroke-linecap:round;stroke-linejoin:round;stroke-miterlimit:10;} .st14{fill:none;stroke:#00CFC1;stroke-width:8.6381;stroke-linecap:round;stroke-linejoin:round;stroke-miterlimit:10;} .st15{fill:none;stroke:#00CFC1;stroke-width:9.2798;stroke-linecap:round;stroke-linejoin:round;stroke-miterlimit:10;} .st16{fill:none;stroke:#00CFC1;stroke-width:8.6648;stroke-linecap:round;stroke-linejoin:round;stroke-miterlimit:10;} .st17{fill:none;stroke:#00CFC1;stroke-width:8.5;stroke-linecap:round;stroke-linejoin:round;stroke-miterlimit:10;} </style> <g> <g> <polygon class="st10" points="172.1,208.1 185.6,172.1 136.1,86.6 86.6,172.1 100.1,208.1 "></polygon> <rect x="104.6" y="230.6" class="st10" width="63" height="18"></rect> <circle class="st10" cx="136.1" cy="172.1" r="13.5"></circle> <line class="st10" x1="136.1" y1="158.6" x2="136.1" y2="86.6"></line> <path class="st10" d="M174.3,230.6H97.8c-6.2,0-11.3-5.1-11.3-11.3l0,0c0-6.2,5.1-11.3,11.3-11.3h76.5c6.2,0,11.3,5.1,11.3,11.3 l0,0C185.6,225.6,180.5,230.6,174.3,230.6z"></path> </g> <path class="st10" d="M37.1,149.6c0-54.7,44.3-99,99-99s99,44.3,99,99"></path> <line class="st10" x1="235.1" y1="50.6" x2="37.1" y2="50.6"></line> <rect x="124.8" y="39.4" class="st11" width="22.5" height="22.5"></rect> <circle class="st11" cx="235.1" cy="50.6" r="11.3"></circle> <circle class="st11" cx="37.1" cy="50.6" r="11.3"></circle> <rect x="223.8" y="138.4" class="st11" width="22.5" height="22.5"></rect> <rect x="25.8" y="138.4" class="st11" width="22.5" height="22.5"></rect> </g> </svg> 